name rise37.2698peak67.6939fall79.5734.mot
datacolumns 19
datarows 30
range 11.99996000000000 12.04829000000000
endheader
time	ground_force1_vx	ground_force1_vy	ground_force1_vz	ground_force1_px	ground_force1_py	ground_force1_pz	ground_force2_vx	ground_force2_vy	ground_force2_vz	ground_force2_px	ground_force2_py	ground_force2_pz	ground_torque1_x	ground_torque1_y	ground_torque1_z	ground_torque2_x	ground_torque2_y	ground_torque2_z	
11.99996000000000	9.67710300000000	723.62063000000001	37.52483500000000	0.20943400000000	0.00000000000000	0.07435000000000	0.00000000000000	0.00000000000000	0.00000000000000	0.00000000000000	0.00000000000000	0.00000000000000	0.00000000000000	13.56429200000000	0.00000000000000	0.00000000000000	0.00000000000000	0.00000000000000	
12.00162200000000	9.30874200000000	724.05701999999997	37.44338700000000	0.20847000000000	0.00000000000000	0.07431900000000	0.00000000000000	0.00000000000000	0.00000000000000	0.00000000000000	0.00000000000000	0.00000000000000	0.00000000000000	13.54321000000000	0.00000000000000	0.00000000000000	0.00000000000000	0.00000000000000	
12.00328600000000	8.93332800000000	724.49839999999995	37.36411700000000	0.20749500000000	0.00000000000000	0.07428700000000	0.00000000000000	0.00000000000000	0.00000000000000	0.00000000000000	0.00000000000000	0.00000000000000	0.00000000000000	13.52456500000000	0.00000000000000	0.00000000000000	0.00000000000000	0.00000000000000	
12.00495300000000	8.55086400000000	724.94377199999997	37.28702600000000	0.20651000000000	0.00000000000000	0.07425500000000	0.00000000000000	0.00000000000000	0.00000000000000	0.00000000000000	0.00000000000000	0.00000000000000	0.00000000000000	13.50837000000000	0.00000000000000	0.00000000000000	0.00000000000000	0.00000000000000	
12.00661900000000	8.16136500000000	725.39223400000003	37.21211900000000	0.20551600000000	0.00000000000000	0.07422400000000	0.00000000000000	0.00000000000000	0.00000000000000	0.00000000000000	0.00000000000000	0.00000000000000	0.00000000000000	13.49463700000000	0.00000000000000	0.00000000000000	0.00000000000000	0.00000000000000	
12.00828500000000	7.76486300000000	725.84297600000002	37.13939800000000	0.20451500000000	0.00000000000000	0.07419200000000	0.00000000000000	0.00000000000000	0.00000000000000	0.00000000000000	0.00000000000000	0.00000000000000	0.00000000000000	13.48338000000000	0.00000000000000	0.00000000000000	0.00000000000000	0.00000000000000	
12.00995800000000	7.36139800000000	726.29528800000003	37.06887200000000	0.20350600000000	0.00000000000000	0.07416100000000	0.00000000000000	0.00000000000000	0.00000000000000	0.00000000000000	0.00000000000000	0.00000000000000	0.00000000000000	13.47461100000000	0.00000000000000	0.00000000000000	0.00000000000000	0.00000000000000	
12.01161800000000	6.95102600000000	726.74855600000001	37.00055000000000	0.20249100000000	0.00000000000000	0.07413000000000	0.00000000000000	0.00000000000000	0.00000000000000	0.00000000000000	0.00000000000000	0.00000000000000	0.00000000000000	13.46834300000000	0.00000000000000	0.00000000000000	0.00000000000000	0.00000000000000	
12.01329200000000	6.53381100000000	727.20227000000000	36.93444100000000	0.20147100000000	0.00000000000000	0.07409900000000	0.00000000000000	0.00000000000000	0.00000000000000	0.00000000000000	0.00000000000000	0.00000000000000	0.00000000000000	13.46458500000000	0.00000000000000	0.00000000000000	0.00000000000000	0.00000000000000	
12.01496000000000	6.10982900000000	727.65601800000002	36.87056100000000	0.20044600000000	0.00000000000000	0.07406800000000	0.00000000000000	0.00000000000000	0.00000000000000	0.00000000000000	0.00000000000000	0.00000000000000	0.00000000000000	13.46334900000000	0.00000000000000	0.00000000000000	0.00000000000000	0.00000000000000	
12.01663100000000	5.67916600000000	728.10949400000004	36.80892200000000	0.19941800000000	0.00000000000000	0.07403700000000	0.00000000000000	0.00000000000000	0.00000000000000	0.00000000000000	0.00000000000000	0.00000000000000	0.00000000000000	13.46464400000000	0.00000000000000	0.00000000000000	0.00000000000000	0.00000000000000	
12.01828700000000	5.24191500000000	728.56249100000002	36.74954300000000	0.19838800000000	0.00000000000000	0.07400600000000	0.00000000000000	0.00000000000000	0.00000000000000	0.00000000000000	0.00000000000000	0.00000000000000	0.00000000000000	13.46847500000000	0.00000000000000	0.00000000000000	0.00000000000000	0.00000000000000	
12.01995200000000	4.79817900000000	729.01490699999999	36.69244200000000	0.19735600000000	0.00000000000000	0.07397500000000	0.00000000000000	0.00000000000000	0.00000000000000	0.00000000000000	0.00000000000000	0.00000000000000	0.00000000000000	13.47484900000000	0.00000000000000	0.00000000000000	0.00000000000000	0.00000000000000	
12.02162600000000	4.34806900000000	729.46674099999996	36.63764100000000	0.19632300000000	0.00000000000000	0.07394400000000	0.00000000000000	0.00000000000000	0.00000000000000	0.00000000000000	0.00000000000000	0.00000000000000	0.00000000000000	13.48376900000000	0.00000000000000	0.00000000000000	0.00000000000000	0.00000000000000	
12.02328900000000	3.89170000000000	729.91809100000000	36.58516400000000	0.19529000000000	0.00000000000000	0.07391400000000	0.00000000000000	0.00000000000000	0.00000000000000	0.00000000000000	0.00000000000000	0.00000000000000	0.00000000000000	13.49523600000000	0.00000000000000	0.00000000000000	0.00000000000000	0.00000000000000	
12.02495200000000	3.42919800000000	730.36915699999997	36.53503500000000	0.19425800000000	0.00000000000000	0.07388300000000	0.00000000000000	0.00000000000000	0.00000000000000	0.00000000000000	0.00000000000000	0.00000000000000	0.00000000000000	13.50924900000000	0.00000000000000	0.00000000000000	0.00000000000000	0.00000000000000	
12.02663500000000	2.96069000000000	730.82023300000003	36.48728400000000	0.19322800000000	0.00000000000000	0.07385200000000	0.00000000000000	0.00000000000000	0.00000000000000	0.00000000000000	0.00000000000000	0.00000000000000	0.00000000000000	13.52580500000000	0.00000000000000	0.00000000000000	0.00000000000000	0.00000000000000	
12.02828900000000	2.48631000000000	731.27171199999998	36.44194100000000	0.19220000000000	0.00000000000000	0.07382100000000	0.00000000000000	0.00000000000000	0.00000000000000	0.00000000000000	0.00000000000000	0.00000000000000	0.00000000000000	13.54489600000000	0.00000000000000	0.00000000000000	0.00000000000000	0.00000000000000	
12.02995300000000	2.00619900000000	731.72407399999997	36.39903900000000	0.19117500000000	0.00000000000000	0.07379000000000	0.00000000000000	0.00000000000000	0.00000000000000	0.00000000000000	0.00000000000000	0.00000000000000	0.00000000000000	13.56651300000000	0.00000000000000	0.00000000000000	0.00000000000000	0.00000000000000	
12.03162300000000	1.52049900000000	732.17789300000004	36.35861400000000	0.19015400000000	0.00000000000000	0.07375900000000	0.00000000000000	0.00000000000000	0.00000000000000	0.00000000000000	0.00000000000000	0.00000000000000	0.00000000000000	13.59064400000000	0.00000000000000	0.00000000000000	0.00000000000000	0.00000000000000	
12.03329900000000	1.02935700000000	732.63382600000000	36.32070600000000	0.18913700000000	0.00000000000000	0.07372800000000	0.00000000000000	0.00000000000000	0.00000000000000	0.00000000000000	0.00000000000000	0.00000000000000	0.00000000000000	13.61727300000000	0.00000000000000	0.00000000000000	0.00000000000000	0.00000000000000	
12.03496000000000	0.53292200000000	733.09261200000003	36.28535700000000	0.18812400000000	0.00000000000000	0.07369700000000	0.00000000000000	0.00000000000000	0.00000000000000	0.00000000000000	0.00000000000000	0.00000000000000	0.00000000000000	13.64638300000000	0.00000000000000	0.00000000000000	0.00000000000000	0.00000000000000	
12.03663000000000	0.03135000000000	733.55506600000001	36.25261100000000	0.18711700000000	0.00000000000000	0.07366600000000	0.00000000000000	0.00000000000000	0.00000000000000	0.00000000000000	0.00000000000000	0.00000000000000	0.00000000000000	13.67795000000000	0.00000000000000	0.00000000000000	0.00000000000000	0.00000000000000	
12.03828800000000	-0.47520500000000	734.02207899999996	36.22251700000000	0.18611400000000	0.00000000000000	0.07363500000000	0.00000000000000	0.00000000000000	0.00000000000000	0.00000000000000	0.00000000000000	0.00000000000000	0.00000000000000	13.71194800000000	0.00000000000000	0.00000000000000	0.00000000000000	0.00000000000000	
12.03995200000000	-0.98658400000000	734.49460599999998	36.19512800000000	0.18511800000000	0.00000000000000	0.07360300000000	0.00000000000000	0.00000000000000	0.00000000000000	0.00000000000000	0.00000000000000	0.00000000000000	0.00000000000000	13.74834900000000	0.00000000000000	0.00000000000000	0.00000000000000	0.00000000000000	
12.04162600000000	-1.50262400000000	734.97366699999998	36.17049900000000	0.18412700000000	0.00000000000000	0.07357200000000	0.00000000000000	0.00000000000000	0.00000000000000	0.00000000000000	0.00000000000000	0.00000000000000	0.00000000000000	13.78712000000000	0.00000000000000	0.00000000000000	0.00000000000000	0.00000000000000	
12.04328800000000	-2.02316300000000	735.46033699999998	36.14869000000000	0.18314100000000	0.00000000000000	0.07354000000000	0.00000000000000	0.00000000000000	0.00000000000000	0.00000000000000	0.00000000000000	0.00000000000000	0.00000000000000	13.82822300000000	0.00000000000000	0.00000000000000	0.00000000000000	0.00000000000000	
12.04495600000000	-2.54803400000000	735.95574299999998	36.12976300000000	0.18216200000000	0.00000000000000	0.07350900000000	0.00000000000000	0.00000000000000	0.00000000000000	0.00000000000000	0.00000000000000	0.00000000000000	0.00000000000000	13.87161800000000	0.00000000000000	0.00000000000000	0.00000000000000	0.00000000000000	
12.04663500000000	-3.07706800000000	736.46105699999998	36.11378700000000	0.18118900000000	0.00000000000000	0.07347700000000	0.00000000000000	0.00000000000000	0.00000000000000	0.00000000000000	0.00000000000000	0.00000000000000	0.00000000000000	13.91726000000000	0.00000000000000	0.00000000000000	0.00000000000000	0.00000000000000	
12.04829000000000	-3.61009300000000	736.97748899999999	36.10083100000000	0.18022100000000	0.00000000000000	0.07344500000000	0.00000000000000	0.00000000000000	0.00000000000000	0.00000000000000	0.00000000000000	0.00000000000000	0.00000000000000	13.96509900000000	0.00000000000000	0.00000000000000	0.00000000000000	0.00000000000000	
